<svg width="60" height="59" viewBox="0 0 60 59" fill="none" xmlns="http://www.w3.org/2000/svg">
<rect x="60" y="2.62268e-06" width="59" height="60" rx="29.5" transform="rotate(90 60 2.62268e-06)" fill="black" fill-opacity="0.01"/>
<g clip-path="url(#clip0_1_570)">
<path d="M24.6668 28.6666C26.4349 28.6666 28.1306 27.9642 29.3809 26.714C30.6311 25.4637 31.3335 23.768 31.3335 21.9999C31.3335 20.2318 30.6311 18.5361 29.3809 17.2859C28.1306 16.0356 26.4349 15.3333 24.6668 15.3333C22.8987 15.3333 21.203 16.0356 19.9528 17.2859C18.7025 18.5361 18.0002 20.2318 18.0002 21.9999C18.0002 23.768 18.7025 25.4637 19.9528 26.714C21.203 27.9642 22.8987 28.6666 24.6668 28.6666ZM24.6668 28.6666C27.3508 28.6666 29.6962 29.6799 31.3642 31.3639C32.3531 32.3666 33.0929 33.5873 33.5242 34.9279M24.6668 28.6666C19.3335 28.6666 15.3335 32.6666 15.3335 37.9999V44.6666H28.6668M30.0002 39.0986L35.5868 43.3333L44.6668 31.3333" stroke="white" stroke-width="2.66667"/>
</g>
<defs>
<clipPath id="clip0_1_570">
<rect width="32" height="32" fill="white" transform="translate(14 14)"/>
</clipPath>
</defs>
</svg>
