<svg width="53" height="54" viewBox="0 0 53 54" fill="none" xmlns="http://www.w3.org/2000/svg">
<rect x="53" y="2.3167e-06" width="54" height="53" rx="26.5" transform="rotate(90 53 2.3167e-06)" fill="black" fill-opacity="0.01"/>
<path d="M27.0187 12.2468C24.4562 12.2468 22.3875 14.2906 22.3875 16.8262C22.3875 18.2625 22.8875 18.9375 23.4375 19.8125C23.8062 20.3937 24.1875 21.0687 24.4062 22.0375H29.5938C29.8125 21.0437 30.1938 20.3625 30.5625 19.775C31.1187 18.8937 31.6125 18.2312 31.6125 16.8262C31.6125 14.2906 29.5625 12.2468 27.0187 12.2468ZM18.1375 12.7281L16.0625 13.2125L21.1375 15.7281L18.1375 12.7281ZM35.8625 12.7281L32.8625 15.7281L37.9375 13.2125L35.8625 12.7281ZM24.1562 15.95L27 17.3687L29.8438 15.95L28.5438 21.1375L27.4562 20.8625L28.1562 18.05L27 18.6312L25.8438 18.05L26.5437 20.8625L25.4563 21.1375L24.1562 15.95ZM15 17.0018V19.0062L21 18L15 17.0018ZM39 17.0018L33 18L39 19V17.0018ZM31.8875 20.0187L34.3813 23.975L35.8875 23.0187L31.8875 20.0187ZM22.1125 20.025L18.1125 23.025L19.6187 23.9812L22.1125 20.025ZM24.5 22.9375V23.9375H29.5V22.9375H24.5ZM26.65 24.7062C25.7937 24.7062 24.9688 24.7375 24.4187 24.7687C20.1562 25.4375 19.2375 31.3562 20.25 36.7437H21.725L21.6625 30.1562L22.825 30.1437C22.7375 34.125 22.925 38.0562 23.1687 42H26.3813V35.3937H27.55V42H30.7C30.9813 37.9375 31.0688 33.7812 31.1063 30.1437L32.275 30.1562L32.2062 36.7437H33.7437C34.8875 31.2125 33.4437 25.5625 29.55 24.8312C28.9625 24.7437 27.9938 24.7062 27.0125 24.7062H26.65Z" fill="white"/>
</svg>
