<svg width="53" height="54" viewBox="0 0 53 54" fill="none" xmlns="http://www.w3.org/2000/svg">
<rect x="53" y="2.3167e-06" width="54" height="53" rx="26.5" transform="rotate(90 53 2.3167e-06)" fill="black" fill-opacity="0.01"/>
<path d="M31.7065 18.2494L38.9412 25.4987C39.832 26.3924 40.3322 27.6029 40.3322 28.8647C40.3322 30.1266 39.832 31.337 38.9412 32.2307C38.3685 32.8049 37.6583 33.2228 36.8782 33.4446C36.0981 33.6663 35.2743 33.6845 34.4852 33.4974V33.6627C34.4857 34.0133 34.4171 34.3604 34.2833 34.6844C34.1496 35.0084 33.9532 35.3029 33.7055 35.5509C33.4579 35.799 33.1637 35.9958 32.8399 36.13C32.5161 36.2643 32.169 36.3334 31.8185 36.3334H29.0052L29.0065 35.3361L28.9998 35.1121C28.9464 34.2194 28.5686 33.3771 27.9375 32.7436C27.3064 32.1101 26.4656 31.729 25.5732 31.6721L25.3412 31.6641H24.0078L23.8732 31.6734C23.6335 31.7063 23.4138 31.825 23.2548 32.0073C23.0958 32.1897 23.0082 32.4235 23.0082 32.6654C23.0082 32.9073 23.0958 33.1411 23.2548 33.3235C23.4138 33.5058 23.6335 33.6244 23.8732 33.6574L24.0092 33.6667H25.3425L25.5118 33.6761C25.8931 33.7155 26.2491 33.8851 26.5199 34.1564C26.7907 34.4277 26.9598 34.784 26.9985 35.1654L27.0078 35.3361L27.0065 36.3334H20.3398C19.9895 36.333 19.6427 36.2637 19.3192 36.1293C18.9958 35.9948 18.7019 35.798 18.4545 35.55C18.2071 35.302 18.011 35.0077 17.8774 34.6838C17.7438 34.36 17.6753 34.013 17.6758 33.6627V30.3241C17.6758 30.0698 17.691 29.8201 17.7212 29.5747C17.4892 29.6281 17.2483 29.6547 16.9985 29.6547C16.5607 29.6546 16.1271 29.5681 15.7227 29.4004C15.3183 29.2326 14.9508 28.9868 14.6414 28.677C14.332 28.3672 14.0866 27.9995 13.9193 27.5948C13.7521 27.1902 13.6662 26.7566 13.6665 26.3187C13.6658 25.8806 13.7515 25.4467 13.9186 25.0418C14.0857 24.6368 14.331 24.2688 14.6405 23.9587C14.9499 23.6487 15.3175 23.4026 15.7221 23.2347C16.1267 23.0668 16.5604 22.9802 16.9985 22.9801C17.7265 22.9805 18.4343 23.2193 19.0139 23.6599C19.5934 24.1005 20.0127 24.7187 20.2078 25.4201C21.2192 24.6987 22.431 24.3122 23.6732 24.3147H28.4878C29.2918 24.3147 30.0598 24.4747 30.7612 24.7614C30.985 24.3853 31.2522 24.0367 31.5572 23.7227L28.9012 21.0627C28.5288 20.6893 28.3196 20.1834 28.3196 19.6561C28.3196 19.1287 28.5288 18.6228 28.9012 18.2494C29.0852 18.0647 29.304 17.9182 29.5448 17.8182C29.7856 17.7182 30.0438 17.6668 30.3045 17.6668C30.5653 17.6668 30.8234 17.7182 31.0642 17.8182C31.3051 17.9182 31.5238 18.0647 31.7078 18.2494" fill="white"/>
</svg>
