<svg width="60" height="59" viewBox="0 0 60 59" fill="none" xmlns="http://www.w3.org/2000/svg">
<rect x="60" y="2.62268e-06" width="59" height="60" rx="29.5" transform="rotate(90 60 2.62268e-06)" fill="black" fill-opacity="0.01"/>
<path d="M21.6934 29.9694L17.7734 26.052L21.6934 22.1587L25.5854 26.052L21.6934 29.9694ZM27.0761 42V35.872C25.7721 35.7609 24.4743 35.6169 23.1828 35.44C21.8912 35.2631 20.6081 35.0143 19.3334 34.6934L19.6401 33.36C21.3539 33.7849 23.0677 34.0876 24.7814 34.268C26.4952 34.4485 28.2339 34.5387 29.9974 34.5387C31.761 34.5387 33.501 34.4485 35.2174 34.268C36.9339 34.0876 38.6477 33.7845 40.3588 33.3587L40.6668 34.692C39.3903 35.0138 38.1063 35.2627 36.8148 35.4387C35.5232 35.6147 34.2259 35.7591 32.9228 35.872V42H27.0761ZM30.0001 23.8467C29.1459 23.8467 28.4197 23.5471 27.8214 22.948C27.2223 22.3498 26.9228 21.6236 26.9228 20.7694C26.9228 19.9151 27.2223 19.1885 27.8214 18.5894C28.4205 17.9903 29.1468 17.6916 30.0001 17.6934C30.8534 17.6951 31.5801 17.9943 32.1801 18.5907C32.7801 19.1871 33.0792 19.9138 33.0774 20.7707C33.0757 21.6276 32.7761 22.3538 32.1788 22.9494C31.5814 23.5449 30.8552 23.8436 30.0001 23.8454M30.0001 32.3854C29.3797 32.3854 28.8485 32.164 28.4068 31.7214C27.965 31.2796 27.7441 30.7485 27.7441 30.128C27.7441 29.5076 27.965 28.9765 28.4068 28.5347C28.8485 28.0929 29.3797 27.872 30.0001 27.872C30.6205 27.872 31.1517 28.0929 31.5934 28.5347C32.0352 28.9765 32.2561 29.5076 32.2561 30.128C32.2561 30.7485 32.0352 31.2796 31.5934 31.7214C31.1517 32.1631 30.6205 32.3854 30.0001 32.3854ZM36.6561 29.7947L34.9028 26.7174L36.6561 23.6414H40.0868L41.8414 26.7174L40.0868 29.7947H36.6561Z" fill="white"/>
</svg>
