<svg width="60" height="59" viewBox="0 0 60 59" fill="none" xmlns="http://www.w3.org/2000/svg">
<rect x="60" y="2.62268e-06" width="59" height="60" rx="29.5" transform="rotate(90 60 2.62268e-06)" fill="black" fill-opacity="0.01"/>
<path fill-rule="evenodd" clip-rule="evenodd" d="M40.3709 19.6291C40.5138 19.7721 40.7057 20.1274 40.6218 20.9665C40.5391 21.7928 40.2011 22.8844 39.5689 24.1856C39.4925 24.3427 39.414 24.4988 39.3333 24.6538V27.2982C41.8223 23.4236 42.7106 20.0832 41.3138 18.6863C39.9057 17.2783 36.523 18.1921 32.6089 20.7267L33.9139 21.4801C34.5723 21.0763 35.2087 20.7255 35.8146 20.4311C37.1156 19.799 38.2073 19.461 39.0336 19.3783C39.8726 19.2944 40.2281 19.4862 40.3709 19.6291ZM39.3333 35.3462V32.7019C41.8223 36.5764 42.7106 39.9169 41.3138 41.3137C39.9053 42.7222 36.5207 41.8073 32.6049 39.2708L33.9098 38.5175C34.5697 38.9223 35.2074 39.274 35.8146 39.5689C37.1156 40.2011 38.2073 40.5391 39.0336 40.6217C39.8726 40.7057 40.2281 40.5138 40.3709 40.3709C40.5139 40.228 40.7058 39.8726 40.6218 39.0336C40.5391 38.2072 40.2011 37.1156 39.5689 35.8145C39.4925 35.6573 39.414 35.5012 39.3333 35.3462ZM26.0903 38.5175L27.3951 39.2708C23.4794 41.8073 20.0948 42.7222 18.6863 41.3137C17.2894 39.9169 18.1778 36.5766 20.6667 32.702V35.3464C20.5861 35.5013 20.5075 35.6574 20.4311 35.8145C19.799 37.1156 19.461 38.2072 19.3783 39.0336C19.2944 39.8726 19.4863 40.228 19.6291 40.3709C19.7721 40.5138 20.1274 40.7057 20.9665 40.6217C21.7928 40.5391 22.8844 40.2011 24.1856 39.5689C24.7926 39.274 25.4304 38.9223 26.0903 38.5175ZM18.6863 18.6863C17.2894 20.0832 18.1778 23.4235 20.6667 27.2981V24.6536C20.5861 24.4987 20.5075 24.3426 20.4311 24.1856C19.799 22.8844 19.461 21.7928 19.3783 20.9665C19.2944 20.1274 19.4863 19.7721 19.6291 19.6291C19.7721 19.4862 20.1274 19.2944 20.9665 19.3783C21.7928 19.461 22.8844 19.7989 24.1856 20.4311C24.7914 20.7254 25.4277 21.0762 26.0862 21.48L27.3911 20.7266C23.4771 18.1921 20.0944 17.2783 18.6863 18.6863ZM30 20.76L38 25.3788V34.6164L30 39.2352L22 34.6164V25.3787L30 20.76ZM35.3333 28.4558V33.0768L31.3333 35.3862V30.7651L35.3333 28.4558ZM28.6667 30.7651V35.3862L24.6667 33.0768V28.4558L28.6667 30.7651ZM30 28.4557L26.0019 26.1474L30 23.8391L33.9981 26.1474L30 28.4557Z" fill="white"/>
</svg>
