<svg width="53" height="54" viewBox="0 0 53 54" fill="none" xmlns="http://www.w3.org/2000/svg">
<rect x="53" y="2.3167e-06" width="54" height="53" rx="26.5" transform="rotate(90 53 2.3167e-06)" fill="black" fill-opacity="0.01"/>
<path d="M30.125 33.75H32.375V31.5H33.5C33.925 31.5 34.2815 31.356 34.5695 31.068C34.8575 30.78 35.001 30.424 35 30V24C35 23.575 34.856 23.219 34.568 22.932C34.28 22.645 33.924 22.501 33.5 22.5H29C28.575 22.5 28.219 22.644 27.932 22.932C27.645 23.22 27.501 23.576 27.5 24V30C27.5 30.425 27.644 30.7815 27.932 31.0695C28.22 31.3575 28.576 31.501 29 31.5H30.125V33.75ZM17 31.5H19.25V28.5H22.25V31.5H24.5V22.5H22.25V26.25H19.25V22.5H17V31.5ZM29.75 29.25V24.75H32.75V29.25H29.75ZM14 39C13.175 39 12.469 38.7065 11.882 38.1195C11.295 37.5325 11.001 36.826 11 36V18C11 17.175 11.294 16.469 11.882 15.882C12.47 15.295 13.176 15.001 14 15H38C38.825 15 39.5315 15.294 40.1195 15.882C40.7075 16.47 41.001 17.176 41 18V36C41 36.825 40.7065 37.5315 40.1195 38.1195C39.5325 38.7075 38.826 39.001 38 39H14Z" fill="white"/>
</svg>
